<svg xmlns="http://www.w3.org/2000/svg" viewBox="0 0 73 29"><defs><style>.cls-1{fill:#1adfff;stroke:#2200b9;}.cls-1,.cls-2,.cls-4{stroke-miterlimit:10;}.cls-2{fill:#ff5e17;stroke:#000;}.cls-3{font-size:3px;font-family:Phosphate-Inline, Phosphate;}.cls-4{fill:#1d06ff;stroke:#ff5e17;}</style></defs><title>Asset 2</title><g id="Layer_2" data-name="Layer 2"><g id="Layer_2-2" data-name="Layer 2"><rect class="cls-1" x="0.5" y="0.5" width="72" height="28" rx="14" ry="14"/><g id="Layer_1-2" data-name="Layer 1"><polygon class="cls-2" points="23.88 16.38 18.95 15.4 19.22 20.41 16.07 16.5 13.06 20.52 13.16 15.5 8.27 16.63 11.58 12.86 7.1 10.58 12.06 9.81 10.1 5.2 14.39 7.79 15.85 2.99 17.47 7.74 21.68 5 19.86 9.68 24.84 10.29 20.45 12.71 23.88 16.38"/><polygon class="cls-2" points="63.88 17.38 58.95 16.4 59.22 21.41 56.07 17.5 53.06 21.52 53.16 16.5 48.27 17.63 51.58 13.86 47.1 11.58 52.06 10.81 50.1 6.2 54.39 8.79 55.85 3.99 57.47 8.74 61.68 6 59.86 10.68 64.84 11.29 60.45 13.71 63.88 17.38"/><text class="cls-3" transform="translate(21.07 19.41) rotate(27.94)">T</text><text class="cls-3" transform="translate(22.3 20.07) rotate(27.65)">a</text><text class="cls-3" transform="translate(23.96 20.94) rotate(27.22)">s</text><text class="cls-3" transform="translate(25.15 21.55) rotate(26.58)">k</text><text class="cls-3" transform="translate(26.87 22.41) rotate(25.9)"> </text><text class="cls-3" transform="matrix(0.9, 0.43, -0.43, 0.9, 27.42, 22.68)">l</text><text class="cls-3" transform="translate(28.64 23.25) rotate(24.22)">i</text><text class="cls-3" transform="translate(29.48 23.63) rotate(22.9)">s</text><text class="cls-3" transform="matrix(0.94, 0.35, -0.35, 0.94, 30.77, 24.18)">t</text><text class="cls-3" transform="matrix(0.95, 0.32, -0.32, 0.95, 32.15, 24.69)"> </text><text class="cls-3" transform="matrix(0.97, 0.26, -0.26, 0.97, 32.79, 24.93)">g</text><text class="cls-3" transform="translate(34.98 25.49) rotate(8.37)">e</text><text class="cls-3" transform="translate(36.57 25.72) rotate(0.91)">n</text><text class="cls-3" transform="matrix(0.99, -0.1, 0.1, 0.99, 38.68, 25.73)">e</text><text class="cls-3" transform="translate(40.28 25.58) rotate(-13.97)">r</text><text class="cls-3" transform="translate(42.28 25.04) rotate(-26.25)">a</text><text class="cls-3" transform="translate(44.16 24.07) rotate(-34.09)">t</text><text class="cls-3" transform="translate(45.47 23.2) rotate(-40.37)">o</text><text class="cls-3" transform="translate(47.25 21.65) rotate(-45.56)">r</text><polygon class="cls-4" points="42.24 17.54 39.45 16.55 39.94 19.47 38.11 17.2 37.04 20.06 36.65 17.12 34.31 19.14 35.47 16.32 32.49 16.97 34.89 15.02 32.06 14.12 35.06 13.57 33.14 11.37 35.93 12.36 35.44 9.44 37.28 11.71 38.34 8.85 38.73 11.79 41.07 9.77 39.91 12.59 42.89 11.94 40.49 13.89 43.32 14.79 40.33 15.34 42.24 17.54"/></g></g></g></svg>